<?xml version="1.0" encoding="utf-8"?>
<!-- Generator: Adobe Illustrator 26.1.0, SVG Export Plug-In . SVG Version: 6.00 Build 0)  -->
<svg version="1.1" id="Capa_1" xmlns="http://www.w3.org/2000/svg" xmlns:xlink="http://www.w3.org/1999/xlink" x="0px" y="0px"
	 viewBox="0 0 1920 1080" style="enable-background:new 0 0 1920 1080;" xml:space="preserve">
<style type="text/css">
	.st0{fill:none;stroke:#DB095F;stroke-width:8;stroke-linecap:round;stroke-linejoin:round;stroke-miterlimit:10;}
	.st1{fill:none;stroke:#DB095F;stroke-width:4;stroke-linecap:round;stroke-linejoin:round;stroke-miterlimit:10;}
	.st2{fill:#F1B509;}
	.st3{fill:#1EC4FF;}
	.st4{fill:#DB095F;}
	.st5{fill:#F70B65;}
	.st6{fill:#F929CC;}
	.st7{fill:none;}
	.st8{fill:url(#SVGID_1_);}
	.st9{clip-path:url(#SVGID_00000004504658867095292900000017520226411824177328_);}
	.st10{fill:#04044F;}
	.st11{fill:#060663;}
	.st12{fill:#050179;}
	.st13{clip-path:url(#SVGID_00000121264766261629836510000013372401193085745071_);}
	.st14{clip-path:url(#SVGID_00000055692870228543156010000006620671732452126119_);}
	.st15{clip-path:url(#SVGID_00000065050561883042162780000008349810673324532392_);}
	.st16{clip-path:url(#SVGID_00000149364879416441344400000000025336207385697678_);}
	.st17{fill:#E6AF1C;}
	.st18{fill:#C68C17;}
	.st19{fill:#F0EC4D;}
	.st20{clip-path:url(#SVGID_00000088830796185986367430000018209663766939412906_);fill:none;stroke:#262525;stroke-miterlimit:10;}
	.st21{clip-path:url(#SVGID_00000111874151697578158550000014437454366825150603_);fill:#F70B65;}
	.st22{clip-path:url(#SVGID_00000099657720608631128010000016318528179958503349_);fill:#F70B65;}
</style>
<g>
	<path class="st0" d="M-1185.6,552.9c0,0,14.1-3.9,25,0.3s23.6-6.3,35-4.8c11.4,1.5,16.9,19,23.2,28.6c7.9,11.8,24.9,12,37.5,13.3
		c16.1,1.7,30.4,5.1,40.1,19.2c15.9,23.2,31.2,60,31.2,60"/>
	<path class="st1" d="M-1006.8,638.6c0,0-7.3-18.7,0.7-29.3c8-10.7,14-10.7,14-17.3"/>
	<path class="st1" d="M-1107.5,571.3c0,0-11.3-9.3-24-4s-14,8-18.7,6"/>
</g>
<g>
	<g>
		<path class="st2" d="M-875.8,553.2c-21.9-43.2-38.7-89.8-41.1-138.2c-0.4-8-0.3-16.4,2.8-23.8c3.2-7.4,10.2-13.7,18.2-13.7
			c8.3,0,15.4,6.5,18.5,14.2c3.1,7.7,2.9,16.2,2.4,24.5c-1.8,25.6-6.9,51-7.3,76.7c-0.3,25.7,4.7,52.6,20.8,72.6"/>
	</g>
	<g>
		<path class="st2" d="M-851.7,554c-6.9-14.1-2.2-31.1,5.1-45c7.4-13.8,17.4-26.5,21.9-41.5c2.8-9.5,2.5-21.5-5.6-27.2
			c-5.1-3.6-12.2-3.6-18-1.1c-5.8,2.5-10.3,7.2-14,12.4c-11.1,15.8-14.2,36-12.4,55.2c1.8,19.2,8,37.7,14.2,55.9"/>
	</g>
	<g>
		<path class="st2" d="M-891.8,556.3c-15.7-9.4-28.4-23.5-36.2-39.9c-1.8-3.8-3.4-8-3.4-12.2c0-4.3,2-8.7,5.7-10.7
			c4.9-2.6,11.4-0.2,15,4.1c3.6,4.3,5.1,9.9,6.4,15.4c3.4,13.5,6.9,27.5,15.4,38.6"/>
	</g>
</g>
<path class="st3" d="M-373.1,684.5c-1.4-2.5-3.6-4.4-6.4-4.9c1.5-0.1,2.8-0.5,3.9-1.7c0.8-0.9,2-2.6,1.3-3.9c-0.6-0.9-4.1-0.2-5.4,1
	c-0.7,0.6-1.1,1.4-1.4,2.3c-0.3-0.1-0.5-0.2-0.9-0.2c-3.7-0.1-7.3-0.2-11,0c3.2-2.9,6.5-7.2,8.1-10.9c0.5-1.1,0.9-2.6-0.1-3.4
	c-0.9-0.8-2.4-0.3-3.4,0.3c-5.3,3.2-9.4,8.4-11.1,14.3c-6.4,0.4-12.8,1.2-19.1,2.4c2.6-1.5,6.5-4.2,8-5.6c1.9-1.7,3.2-4.2,2.9-6.8
	s-2.7-4.8-5.2-4.5c-2,0.3-3.5,2-4.7,3.6c-3.3,4.5-5.9,9.4-7.7,14.6c-7,1.6-13.8,3.6-20.5,6c2.4-4,4.5-8.1,6.3-12.3
	c0.9-2.1,1.7-4.7,0.3-6.6c-1.2-1.6-3.7-1.8-5.5-1s-3.1,2.6-4.2,4.3c-3.4,5.6-5.2,12.2-5.1,18.8c-6,2.5-11.9,5.4-17.6,8.6
	c3.3-4.7,5.4-10.2,6-15.9c0.3-2.5-0.4-5.8-2.9-6.1c-1.8-0.2-3.1,1.4-4.1,2.9c-4,6.5-5.5,14.5-3.9,22c-4.6,2.8-9.1,5.8-13.5,9.1
	c-0.2,0.2-0.4,0.3-0.6,0.5c1.7-4.3,2.4-9,2-13.6c-0.2-1.9-0.8-4.1-2.6-4.6c-1.4-0.4-2.8,0.4-3.6,1.6c-0.8,1.2-1.1,2.6-1.3,4
	c-0.9,5.9-1.2,11.9-0.9,17.8c-3,2.5-6,5.2-8.8,8c0.2-0.7,0.5-1.5,0.7-2.2c0.7-2.3,1.2-4.9,0.5-7.2c-0.7-2.3-2.9-4.4-5.3-4.3
	c-2.2,0.1-4,1.9-4.7,3.9c-0.8,2-0.8,4.2-0.8,6.4c0,4.5,0,9,0,13.6c-3.7,4.3-7.2,8.8-10.5,13.5c0.5-4.1,0.4-8.2-0.2-12.2
	c-0.2-1.5-0.5-3-1.4-4.3c-0.8-1.3-2.3-2.2-3.8-1.9c-1.5,0.2-2.6,1.5-3,2.9c-0.5,1.4-0.4,2.9-0.2,4.4c0.5,6.3,1.8,12.5,3.8,18.5
	c-4.7,7.6-8.9,15.6-12.3,23.9c-0.7-7.6-2.1-15.2-4.4-22.5c-0.5-1.5-1.4-3.2-2.9-3.1c-1.3,0.1-2,1.6-2.3,2.9
	c-1.2,5.3-0.2,10.9,1.8,15.9c1.6,3.9,3.7,7.6,6,11.2c-2.6,6.6-4.7,13.4-6.4,20.3c-3.2-6.2-4.2-13.7-9.1-18.6
	c-1.7-1.8-4.3-3.2-6.5-2.2c-1.7,0.7-2.7,2.5-2.9,4.3s0.4,3.6,1.1,5.3c3,7.3,9,13.3,16.2,16.4c-2,9.3-3.2,18.7-3.6,28.1
	c-1.5-2.5-3-5-3.5-7.9c-0.7-3.7-1.3-7.5-2.9-10.9c-1.7-3.4-4.6-6.4-8.3-7.1c-3.7-0.8-8,1.3-8.9,5c-0.6,2.7,0.6,5.5,2,7.8
	c4.9,8.2,12.6,14.8,21.4,18.4c-0.1,9.2,0.5,18.5,1.9,27.7c0.5,3.2,5.3,1.8,4.8-1.3c-0.2-1.1-0.3-2.2-0.5-3.3
	c3.6-6.5,7.1-13,10.7-19.6c0.9-1.6,1.7-3.2,1.9-5c0.2-1.8-0.6-3.8-2.3-4.5c-2.3-1-4.8,1-6.4,2.9c-2,2.4-3.7,5.1-5.2,7.9
	c-0.1-6.2,0.2-12.3,0.8-18.5c8-2.1,15.5-5.8,22.1-10.9c1.5-1.2,3-2.5,4-4.1c1-1.7,1.3-3.8,0.4-5.5c-1.5-2.9-5.6-3.2-8.8-2.4
	c-6.4,1.5-12.2,5.5-16,10.9c1.4-7.8,3.3-15.5,5.7-23.1l0.2,0.6c8.3,1.2,17.1-1.6,23.1-7.4c1.3-1.2,2.5-3,2-4.7
	c-0.6-1.7-2.8-2.3-4.6-2.4c-6-0.4-12.1,1.3-17.2,4.5c2.7-6.8,5.8-13.4,9.3-19.8l-0.1,0.5c8.9,1.2,17.9,2.5,26.7,1.1
	c2.2-0.3,4.5-0.9,6.2-2.4c1.7-1.5,2.4-4.2,1.1-6.1c-1.3-1.8-3.9-2-6.1-1.9c-7.7,0.3-16.6,0.5-24.2,2.6c3.1-5.1,6.5-10,10.2-14.6
	c5.9,1.4,14.4,1.4,20.1,2.5c2.6,0.5,5.3,0.9,7.8,0s4.5-3.6,3.7-6.1c-0.5-1.6-2-2.8-3.6-3.3s-3.4-0.5-5-0.4
	c-6.2,0.3-12.3,0.9-18.5,1.8c4.9-5.6,10.1-10.9,15.7-15.8c5.1,5.1,14,8.4,21.2,8c2.3-0.1,4.9-0.8,5.7-3c0.7-1.8-0.4-3.9-2-5
	c-1.6-1.1-3.6-1.4-5.5-1.6c-5.2-0.6-10.7-1.6-16-1.3c6.1-5.1,12.6-9.7,19.5-13.8c4.1,3.8,10.5,7.8,15.8,8.9c1.7,0.4,3.4,0.6,5,0.1
	c1.6-0.5,3.1-1.9,3.2-3.6c0.1-2.5-2.5-4.2-4.9-5.1c-4.8-1.7-9.8-2.3-14.9-2.8c5.4-3,10.9-5.8,16.6-8.2c4,3.5,9.9,6.6,14.9,7.9
	c1.7,0.4,3.4,0.8,5.1,0.3c1.7-0.4,3.2-1.7,3.4-3.4c0.3-2.4-1.9-4.3-4.1-5.4c-3.7-1.8-7.8-2.6-11.9-2.4c0.5-0.2,1.1-0.4,1.6-0.6
	c7.3-2.6,14.7-4.7,22.2-6.2l-0.1,0.1c2.6,2.3,5.2,4.7,7.8,7c0.8,0.8,1.8,1.5,2.9,1.7c1.8,0.2,3.3-1.6,3.3-3.4c0-1.8-1.2-3.4-2.7-4.3
	c-1.1-0.7-3.7-1.6-5.7-2.1c5.6-1,11.2-1.6,16.8-2c3.4,5.7,9.7,11.8,15.7,14.1c1.3,0.5,3,0.9,4-0.1c1.2-1.2,0.3-3.2-0.7-4.6
	c-2.4-3.2-6.2-7.2-9.9-9.7c2.7,0,5.4,0,8.1,0.1c0.3,0,0.5,0,0.8-0.1c1.4,3.7,5.1,9.8,8.2,8.6C-370.6,689.7-372.2,686-373.1,684.5z"
	/>
<path class="st3" d="M-179.7,1679.3c-2.7,0.9-4.9,2.7-6,5.4c0.2-1.5,0.1-2.9-0.9-4.2c-0.7-1-2.2-2.5-3.6-2c-1,0.4-1,3.9,0,5.5
	c0.5,0.8,1.2,1.4,1.9,1.8c-0.1,0.2-0.3,0.5-0.3,0.8c-0.8,3.6-1.5,7.2-2.1,10.8c-2.3-3.7-5.9-7.7-9.2-10c-1-0.7-2.4-1.3-3.4-0.6
	c-1,0.7-0.7,2.2-0.3,3.4c2.1,5.8,6.5,10.8,12,13.6c-0.8,6.4-1.2,12.8-1.2,19.2c-1-2.9-2.9-7.1-4-8.9c-1.4-2.2-3.6-3.9-6.1-4.1
	c-2.6-0.2-5.2,1.7-5.4,4.3c-0.1,2,1.3,3.8,2.6,5.3c3.8,4.1,8.2,7.5,12.9,10.3c0.2,7.1,0.9,14.2,2.1,21.2c-3.4-3.1-7.1-5.9-10.9-8.5
	c-1.9-1.3-4.3-2.5-6.4-1.5c-1.8,0.9-2.5,3.3-2,5.3s2,3.5,3.5,4.9c4.9,4.4,11,7.4,17.5,8.5c1.4,6.4,3.1,12.7,5.2,18.8
	c-4-4.1-9-7.2-14.5-8.8c-2.4-0.7-5.8-0.7-6.5,1.7c-0.5,1.7,0.8,3.3,2.1,4.6c5.6,5.2,13.2,8.1,20.9,7.9c1.9,5.1,4.1,10.1,6.4,14.9
	c0.1,0.2,0.2,0.5,0.4,0.7c-3.9-2.5-8.4-4-13-4.5c-1.9-0.2-4.2,0.1-5,1.7c-0.6,1.3-0.1,2.8,0.9,3.8s2.3,1.5,3.7,2
	c5.6,2,11.4,3.4,17.4,4.2c1.9,3.4,4,6.8,6.2,10.1c-0.7-0.4-1.3-0.7-2-1.1c-2.2-1.1-4.6-2.1-7-1.8c-2.4,0.2-4.9,2-5.2,4.4
	c-0.3,2.2,1.1,4.2,3,5.4s4,1.6,6.1,2c4.4,0.8,8.9,1.7,13.4,2.5c3.6,4.5,7.3,8.7,11.3,12.8c-3.9-1.2-8-1.9-12.1-2.1
	c-1.5-0.1-3.1,0-4.5,0.6c-1.4,0.6-2.6,1.9-2.6,3.4c0,1.5,1,2.8,2.3,3.5c1.3,0.7,2.8,0.9,4.3,1.1c6.3,0.6,12.6,0.5,18.9-0.3
	c6.6,6.1,13.7,11.6,21.2,16.6c-7.6-0.8-15.3-0.7-22.9,0.1c-1.5,0.2-3.4,0.7-3.6,2.3c-0.1,1.3,1.2,2.3,2.4,2.8c5,2.2,10.7,2.2,16,1.2
	c4.2-0.8,8.2-2.2,12.1-3.8c6,3.8,12.3,7.1,18.8,10.1c-6.7,2-14.2,1.6-20,5.4c-2,1.3-3.9,3.6-3.4,6c0.3,1.8,2,3.1,3.7,3.6
	s3.6,0.3,5.4-0.1c7.7-1.6,14.7-6.3,19.2-12.8c8.7,3.7,17.7,6.6,26.9,8.8c-2.8,1-5.5,2-8.4,1.9c-3.8-0.1-7.6-0.2-11.2,0.9
	c-3.6,1-7.1,3.3-8.5,6.8c-1.4,3.5-0.2,8.2,3.3,9.7c2.5,1.1,5.5,0.4,8.1-0.5c9-3.3,16.9-9.6,22.1-17.6c9,1.8,18.2,2.9,27.5,3.3
	c3.2,0.1,2.8-4.9-0.4-5c-1.1,0-2.3-0.1-3.4-0.2c-5.8-4.7-11.5-9.4-17.2-14.2c-1.4-1.1-2.8-2.3-4.5-2.8c-1.7-0.5-3.8-0.1-4.8,1.4
	c-1.4,2.1,0,4.9,1.7,6.9c2,2.4,4.3,4.6,6.8,6.5c-6.1-1.1-12.1-2.5-18-4.2c-0.6-8.2-2.8-16.3-6.6-23.7c-0.9-1.7-1.8-3.4-3.3-4.7
	c-1.5-1.2-3.5-1.9-5.3-1.4c-3.1,1-4.2,4.9-4,8.2c0.2,6.6,3.1,13,7.8,17.7c-7.4-2.8-14.7-6.1-21.6-9.9l0.6-0.1
	c2.7-7.9,1.6-17.1-3-24.1c-1-1.5-2.4-3-4.2-2.8c-1.8,0.3-2.8,2.3-3.2,4.1c-1.5,5.8-1,12.2,1.2,17.8c-6.2-3.9-12.1-8.2-17.7-12.8
	l0.4,0.2c2.9-8.5,5.8-17.1,6.1-26c0.1-2.3,0-4.6-1.2-6.6c-1.2-1.9-3.7-3.2-5.8-2.2c-2,0.9-2.7,3.5-3,5.7c-1.1,7.7-2.6,16.4-1.9,24.3
	c-4.4-4-8.6-8.3-12.5-12.8c2.5-5.6,4.1-13.8,6.2-19.3c0.9-2.5,1.9-5.1,1.4-7.7c-0.4-2.6-2.7-5.1-5.3-4.8c-1.7,0.2-3.1,1.5-3.9,2.9
	c-0.8,1.5-1.1,3.2-1.3,4.9c-0.9,6.1-1.4,12.3-1.7,18.5c-4.6-5.8-8.8-12-12.6-18.4c6-4.1,10.9-12.2,11.8-19.3c0.3-2.3,0.1-5-1.9-6.2
	c-1.6-1-3.9-0.3-5.3,1c-1.4,1.4-2.1,3.2-2.6,5.1c-1.6,5-3.5,10.2-4.3,15.4c-3.8-7-7.2-14.2-10-21.7c4.5-3.3,9.6-8.8,11.7-13.9
	c0.7-1.6,1.2-3.2,1-4.9c-0.2-1.7-1.3-3.4-2.9-3.8c-2.4-0.6-4.6,1.7-5.9,3.8c-2.6,4.4-4.1,9.2-5.5,14.1c-2-5.8-3.6-11.8-5-17.8
	c4.2-3.3,8.3-8.5,10.5-13.2c0.7-1.6,1.4-3.2,1.3-4.9c-0.1-1.7-1.1-3.5-2.7-4c-2.3-0.8-4.6,1.1-6.1,3c-2.5,3.3-4,7.2-4.6,11.3
	c-0.1-0.6-0.2-1.1-0.3-1.7c-1.2-7.6-1.9-15.3-2-22.9l0,0.2c2.8-2.1,5.6-4.2,8.4-6.3c0.9-0.7,1.9-1.4,2.2-2.5c0.5-1.7-1-3.5-2.7-3.9
	s-3.5,0.6-4.7,1.9c-0.9,1-2.2,3.3-3.1,5.2c0.1-5.7,0.5-11.3,1.1-16.9c6.3-2.3,13.4-7.3,16.8-12.8c0.8-1.2,1.4-2.8,0.6-3.9
	c-1-1.4-3.1-0.9-4.7-0.2c-3.6,1.7-8.2,4.8-11.4,8c0.5-2.7,1-5.3,1.6-8c0.1-0.3,0.1-0.5,0.1-0.8c3.9-0.7,10.6-3.2,10-6.5
	C-174.1,1677.8-178,1678.8-179.7,1679.3z"/>
<g>
	<g id="XMLID_1_">
		<path class="st4" d="M-251.7,345.5c-46.8,40.8-70.8,95.6-70.8,95.6c-6.6-5.6-1.9-16.1-0.8-24.7c1-7.9-1.5-15.8-4.1-23.3
			c-2.6-7.5-5.3-15.3-4.6-23.2s5.9-16.1,13.7-17.5c3.6-0.6,7.8,0,10.6-2.3c4.3-3.5,2-10.4,2.4-15.9c0.7-12.3,16.7-18.8,28.3-14.5
			C-265.5,323.9-257.9,334.8-251.7,345.5z"/>
		<path class="st5" d="M-215.9,373.2c0.8,16.5-14.2,32-30.7,31.7c-2.2,0-4.5-0.3-6.6,0.4c-6.6,2.2-6.9,11.2-6,18.1
			c0.9,6.9,0.6,16-6,18.1c-7.4,2.4-13.4-6.8-21.1-8.4c-6.4-1.3-12.4,2.9-18,6.3c-5.6,3.4-13.2,5.9-18.2,1.6c0,0,24-54.8,70.8-95.6
			l2.1-0.8C-233.2,342.8-216.7,356.7-215.9,373.2z"/>
	</g>
	<path class="st6" d="M-319.2,434c6.5-12.6,13.6-24.8,21.2-36.7c7.7-11.9,15.9-23.4,24.7-34.5c4.4-5.5,9.1-10.9,13.9-16.2
		c4.9-5.2,10-10.2,15.5-14.7c5.5-4.6,11.4-8.7,17.6-12.2c6.2-3.5,12.8-6.4,19.7-8.1l0.1,0.4c-6.5,2.7-12.6,6.2-18.4,10.1l-2.2,1.5
		c-0.7,0.5-1.4,1-2.1,1.5c-1.4,1.1-2.8,2-4.2,3.2l-4.1,3.3l-3.9,3.4c-10.4,9.3-20.4,19.2-29.5,29.9c-9.1,10.7-17.6,22-25.5,33.6
		c-8,11.6-15.6,23.5-22.6,35.8L-319.2,434z"/>
</g>
<g>
	<g id="XMLID_10_">
		<g id="XMLID_11_">
			<g>
				<path class="st4" d="M-833.2,872c1.5-2.6,3.2-5.3,6-6.2c1.2-0.4,2.4-0.4,3.5-0.1c-32.2,62.6-43.5,135.9-31.4,205.3
					c-7-10.1-23.4-11.9-27.8-23.6c-4.5-11.8,7.4-20.3,6.8-31.7c-0.6-11.4-13.3-20.3-11.4-31.5c1.2-7.3,8.2-12,12.7-17.8
					c6-7.8,7.7-18,10.3-27.5C-858.1,914.9-845.6,893.3-833.2,872z"/>
				<path class="st5" d="M-823.7,865.6c3.9,1,7,5.8,7.1,10.3c0.2,5.7-2.2,11.2-2.2,16.9c0.1,10.7,8.9,20,8.2,30.7
					c-0.8,12-13.2,20.9-13.6,32.9c-0.4,10.9,9.3,20.7,7.3,31.4c-1.6,8.3-10,14.4-10.2,22.8c-0.2,6,4,11.7,3.3,17.7
					c-0.7,6.3-6.4,10.6-10.2,15.6c-5.9,7.7-7.9,18.3-5,27.6l-16.1-0.6C-867.2,1001.5-855.9,928.2-823.7,865.6z"/>
			</g>
		</g>
	</g>
	<g>
		<path class="st6" d="M-855.3,1070.9c-1.9-8.1-2.9-16.3-3.7-24.6l-0.5-6.2c-0.2-2.1-0.2-4.1-0.3-6.2c-0.1-2.1-0.2-4.1-0.3-6.2
			l-0.1-6.2c0-16.6,1.2-33.2,3.4-49.6l2-12.3c0.3-2,0.6-4.1,1-6.1l1.3-6.1c0.9-4,1.7-8.1,2.7-12.2c1.1-4,2.2-8,3.4-12l1.8-6l2-5.9
			c1.4-3.9,2.8-7.8,4.2-11.7c0.4-1,0.7-2,1.1-2.9l1.2-2.9l2.5-5.7c1.7-3.8,3.3-7.6,5.1-11.3l0.4,0.2c-1.2,4-2.5,7.9-3.8,11.8l-2,5.9
			l-1,2.9c-0.3,1-0.6,2-0.9,3c-1.1,4-2.3,7.9-3.5,11.8l-1.8,5.9l-1.5,6c-1,4-2.1,8-3.2,11.9c-1,4-1.9,8-2.8,12l-1.5,6
			c-0.5,2-0.8,4-1.2,6l-2.3,12.1c-2.6,16.3-4.2,32.7-4.5,49.2l-0.1,6.2c0,2.1,0,4.1,0.1,6.2c0,2.1,0,4.1,0.1,6.2l0.3,6.2
			c0.5,8.2,1.3,16.5,2.9,24.5L-855.3,1070.9z"/>
	</g>
</g>
<g>
	<g id="XMLID_8_">
		<g id="XMLID_9_">
			<g>
				<path class="st4" d="M-779.3,421.2c0.4-2.6,0.9-5.4,2.8-7.1c0.8-0.7,1.8-1.1,2.8-1.2c-5.5,62.2,9.7,126.1,42.8,179.1
					c-9.1-5.9-23.2-2-30.7-10.1c-7.6-8.2-0.7-19.1-5-28.3c-4.3-9.2-17.7-12.2-19.9-22.1c-1.4-6.4,2.8-12.6,4.5-18.9
					c2.3-8.4,0.3-17.4-0.8-26C-785.4,464.8-782.3,442.8-779.3,421.2z"/>
				<path class="st5" d="M-773.6,412.8c3.5-0.4,7.7,2.5,9.3,6c2.1,4.6,1.9,9.9,3.9,14.6c3.7,8.7,14,13.5,17,22.5
					c3.4,10.1-3.8,21.6-0.2,31.5c3.3,9.1,14.6,13.9,16.5,23.4c1.5,7.3-3.4,15.2-0.8,22.2c1.9,5,7.2,8.3,8.6,13.5
					c1.5,5.4-1.7,10.8-3.2,16.2c-2.3,8.3-0.3,17.7,5.1,24.4l-13.4,4.9C-763.9,538.9-779.1,475-773.6,412.8z"/>
			</g>
		</g>
	</g>
	<g>
		<path class="st6" d="M-730.9,592c-4.2-6-7.9-12.4-11.3-18.9l-2.5-4.9c-0.8-1.6-1.6-3.3-2.4-5c-0.8-1.7-1.6-3.3-2.3-5l-2.1-5.1
			c-5.6-13.6-10.1-27.6-13.9-41.9l-2.5-10.8c-0.4-1.8-0.9-3.6-1.2-5.4l-1-5.4c-0.6-3.6-1.3-7.2-1.9-10.9c-0.4-3.7-0.8-7.3-1.2-11
			l-0.5-5.5l-0.3-5.5c-0.1-3.7-0.3-7.4-0.4-11c-0.1-1.8-0.1-3.7,0-5.5l0.2-5.5c0.2-3.7,0.2-7.4,0.5-11h0.4c0.4,3.7,0.6,7.3,0.9,11
			l0.4,5.5l0.2,2.7c0,0.9,0.2,1.8,0.3,2.7c0.4,3.6,0.8,7.3,1.1,10.9l0.5,5.4l0.8,5.4c0.5,3.6,1,7.2,1.4,10.8
			c0.5,3.6,1.1,7.2,1.7,10.8l0.8,5.4c0.3,1.8,0.7,3.6,1,5.4l2.2,10.7c3.3,14.2,7.4,28.2,12.6,41.9l1.9,5.1c0.7,1.7,1.4,3.4,2.1,5
			c0.7,1.7,1.4,3.4,2.2,5l2.3,5c3.2,6.6,6.6,13.1,10.6,19.2L-730.9,592z"/>
	</g>
</g>
<rect x="-726.3" y="1741" class="st7" width="501" height="501"/>
<rect class="st7" width="1920" height="1080"/>
<radialGradient id="SVGID_1_" cx="960" cy="540" r="1293.8896" fx="1971.1521" fy="-267.2929" gradientTransform="matrix(1 0 0 -1 0 1080)" gradientUnits="userSpaceOnUse">
	<stop  offset="0" style="stop-color:#060663"/>
	<stop  offset="1" style="stop-color:#020238"/>
</radialGradient>
<rect class="st8" width="1920" height="1080"/>
<g>
	<defs>
		<rect id="SVGID_00000158744921950625763350000009831308428558385562_" width="1920" height="1080"/>
	</defs>
	<clipPath id="SVGID_00000182528424064790225640000002523472526340155538_">
		<use xlink:href="#SVGID_00000158744921950625763350000009831308428558385562_"  style="overflow:visible;"/>
	</clipPath>
	<g style="clip-path:url(#SVGID_00000182528424064790225640000002523472526340155538_);">
		<g id="XMLID_6_">
			<path class="st10" d="M27.3,1073.9C178.9,946,256.6,774.3,256.6,774.3c21.4,17.6,6.2,50.4,2.6,77.4c-3.4,24.8,4.9,49.4,13.3,73
				c8.4,23.6,17.2,48,14.9,72.8c-2.3,24.8-19.1,50.3-44.5,54.8c-11.7,2-25.2-0.2-34.4,7.1c-14,11.1-6.5,32.4-7.6,49.9
				c-2.4,38.5-54.1,58.9-91.6,45.6C71.9,1141.6,47.4,1107.2,27.3,1073.9z"/>
			<path class="st11" d="M-88.8,987c-2.7-51.7,46-100.3,99.5-99.4c7.1,0.1,14.5,1,21.3-1.2c21.3-6.8,22.5-35.2,19.5-56.7
				c-3-21.5-1.9-50,19.5-56.8c24-7.6,43.5,21.4,68.2,26.3c20.7,4.2,40.2-9.2,58.4-19.7c18.1-10.6,42.9-18.4,59.1-5.1
				c0,0-77.7,171.7-229.3,299.6l-6.9,2.4C-32.7,1082.3-86.1,1038.6-88.8,987z"/>
		</g>
		<path class="st12" d="M245.8,796.4c-21,39.3-44.2,77.5-68.8,114.9c-24.8,37.2-51.4,73.4-80.1,108.1
			c-14.4,17.3-29.3,34.2-44.9,50.7c-15.7,16.3-32.3,31.8-50.1,46.1c-17.8,14.3-36.8,27.2-56.9,38.3c-20.1,11.1-41.5,20.1-63.9,25.4
			l-0.4-1.2c21.1-8.5,40.8-19.5,59.5-31.7l7-4.6c2.3-1.6,4.5-3.2,6.8-4.8c4.5-3.3,9.2-6.3,13.5-9.9l13.2-10.2l12.8-10.8
			c33.7-29.1,65.9-60.1,95.4-93.6c29.4-33.6,56.9-68.8,82.7-105.2c25.9-36.3,50.6-73.5,73.1-112L245.8,796.4z"/>
	</g>
</g>
<rect class="st7" width="1920" height="1080"/>
<g>
	<g id="XMLID_7_">
		<path class="st10" d="M1210.7,1183c-9.2-285.5-133.9-526.5-133.9-526.5c39-8.5,62.5,38,89.8,66.2c25,25.9,60.2,38.6,94.4,50.1
			c34.2,11.5,69.6,23.4,95.6,48.2s39.9,66.5,22.2,99.1c-8.2,15.1-22.6,28.3-22.7,45.2c0,25.7,30.9,36.3,49.6,53.2
			c41.4,37.1,18.2,113.7-30.3,144.2C1327,1193.1,1266.3,1190,1210.7,1183z"/>
		<path class="st11" d="M1008.9,1236.6c-60.7-43.1-72.3-141.5-23.5-201.2c6.5-7.9,14-15.5,17.7-25.1c11.4-30.2-19.7-56.8-46.7-72.6
			c-27-15.8-58.1-42.5-46.8-72.7c12.8-33.8,63-30.1,90.6-53.6c23.2-19.7,25.5-53.6,29.8-83.6c4.3-29.9,17.5-64.9,46.9-71.3
			c0,0,124.7,241,133.9,526.5l-3.4,10C1166.7,1258.4,1069.6,1279.7,1008.9,1236.6z"/>
	</g>
	<path class="st12" d="M1092.3,688.4c25.7,58.8,48.2,119.2,68.4,180.3c19.9,61.3,37.1,123.6,50.6,187c6.7,31.7,12.5,63.7,17.2,95.9
		c4.4,32.3,7.1,64.9,7.3,97.8c0.3,32.8-2.1,65.9-7.5,98.5c-5.4,32.6-14.3,64.9-28.3,94.9l-1.7-0.6c9.2-31.5,14.3-63.5,17.2-95.5
		l1.1-12c0.3-4,0.4-8,0.6-12c0.2-8,1-16,0.8-24.1l0.2-24.1l-0.8-24.1c-2.8-64-9.1-128.1-20.7-191.4c-11.7-63.2-26.9-125.7-45-187.3
		c-17.8-61.7-37.9-122.8-61.3-182.5L1092.3,688.4z"/>
</g>
<g>
	<defs>
		<rect id="SVGID_00000067956546436185934650000000487642863061938345_" width="1920" height="1080"/>
	</defs>
	<clipPath id="SVGID_00000068675352823033678000000014440590870160364163_">
		<use xlink:href="#SVGID_00000067956546436185934650000000487642863061938345_"  style="overflow:visible;"/>
	</clipPath>
	<g style="clip-path:url(#SVGID_00000068675352823033678000000014440590870160364163_);">
		<g>
			<path class="st11" d="M1883.1,37.6c-57,136.9-132.4,268.8-240.4,370.3c-18,16.9-37.5,33.3-61.1,40.6
				c-23.6,7.3-52.2,3.5-68.2-15.2c-16.5-19.2-15.4-49-3.7-71.4s31.9-39.1,52.3-54.1c63.2-46.9,132.6-85.3,193.2-135.5
				c60.6-50.2,113.3-115.5,127.8-192.8"/>
		</g>
		<g>
			<path class="st11" d="M1837.2-20.2c-19,44.1-68.1,67.1-115,77.4c-46.9,10.3-96.3,12-140.2,31.5c-27.7,12.3-55,37-52.2,67.2
				c1.7,19.2,15.9,35.8,33.2,44.2c17.3,8.4,37.3,9.7,56.5,7.9c58.8-5.5,112.2-38.6,153.3-80.9c41.2-42.3,71.8-93.4,102.1-144.1"/>
		</g>
		<g>
			<path class="st11" d="M1922.3,68.7c9.3,55.1,1.8,112.9-21.1,163.8c-5.3,11.9-11.8,23.7-21.8,32.1s-24.3,12.8-36.4,8
				c-16-6.2-23-26.1-20.2-43c2.8-16.9,13.1-31.5,23.1-45.5c24.9-34.8,50.4-70.8,59.3-112.6"/>
		</g>
	</g>
</g>
<g>
	<defs>
		<rect id="SVGID_00000167384629794271624580000015322247627377175439_" width="1920" height="1080"/>
	</defs>
	<clipPath id="SVGID_00000106108578615422826710000007266656541079009432_">
		<use xlink:href="#SVGID_00000167384629794271624580000015322247627377175439_"  style="overflow:visible;"/>
	</clipPath>
	<g style="clip-path:url(#SVGID_00000106108578615422826710000007266656541079009432_);">
		<g id="XMLID_3_">
			<path class="st11" d="M250.3,427.7c0.1-6.6,0.1-13.5,0-20.6c-0.2-18.1-0.9-38-2.5-59.2c-0.6-9-1.4-18.2-2.4-27.7
				c-1.7-17.2-4-35.2-6.9-53.8c-2-13.1-4.4-26.6-7.1-40.3c-2.6-13.4-5.6-27-9-40.8c-3.4-14.1-7.3-28.4-11.6-42.9
				c-4.9-16.9-10.5-34.1-16.7-51.4c-3.4-9.6-7-19.1-10.9-28.8c-4.9-12.4-10.1-24.8-15.8-37.2c-5.6-12.4-11.5-24.8-17.8-37.2
				c-2.5-5.1-5.2-10.2-7.9-15.3c-6.6-12.4-13.6-24.9-21-37.3l-0.5-2.8L30.8-56.8C29.5-25.3,29,4.4,29.1,32.3
				c0.2,38.7,1.7,74,4.3,106.2c2.2,27.4,5.3,52.7,9,75.9c7.6,47.2,18,86.2,30.5,118.9c11.3,29.6,24.1,54,38,74.6
				c16.9,25.1,35.1,44.4,53.6,60.3c27.4,23.8,55.1,40.1,78.9,57.2C243.3,525.5,249.7,488.4,250.3,427.7z"/>
			<path class="st10" d="M309.1,457.9c17.8-24.6,30.3-50.2,38.4-76.1c9.9-31.5,13.5-63.5,12.3-95.4c-1.2-33.4-7.7-66.6-17.5-98.5
				c-8.9-29.2-20.6-57.4-33.6-83.7c-17.2-34.8-36.6-66.4-54.8-93.1c-13.7-20.1-26.8-37.4-37.7-51.1c-18-22.5-30.2-35.5-30.2-35.5
				l-65.6,7.8l0.5,2.8c7.4,12.4,14.4,24.9,21,37.3c2.7,5.1,5.4,10.2,7.9,15.3c6.3,12.4,12.2,24.8,17.8,37.2
				c5.6,12.4,10.9,24.9,15.8,37.2c3.8,9.6,7.4,19.2,10.9,28.8c6.2,17.3,11.8,34.5,16.7,51.4c4.3,14.5,8.1,28.8,11.6,42.9
				c3.4,13.8,6.4,27.4,9,40.8c2.7,13.7,5.1,27.1,7.1,40.3c2.9,18.6,5.2,36.6,6.9,53.8c0.9,9.5,1.7,18.7,2.4,27.7
				c1.5,21.2,2.2,41,2.5,59.2c0.1,7.1,0.1,14,0,20.6c-0.7,60.8-7.1,97.8-7.1,97.8C270.5,504,292.2,481.4,309.1,457.9z"/>
		</g>
		<path class="st12" d="M120.7-67.7c13.1,21.7,24.7,44,35.7,66.6c10.9,22.6,21,45.4,30.3,68.6c18.4,46.3,33.6,93.5,45.4,141.4
			c1.6,6,2.8,12,4.2,18l2.1,9l1.8,9c1.2,6,2.5,12,3.6,18.1L247,281c3.8,24.2,6.9,48.5,8.1,72.9l0.6,9.1l0.2,9.1
			c0.1,6.1,0.4,12.2,0.4,18.3l-0.3,18.3c-0.1,3,0,6.1-0.2,9.1l-0.5,9.1c-1,24.3-4.1,48.4-8,72.4l-0.8-0.1
			c3.8-48.3,4.6-96.8,0.6-145.1l-1.4-18.1l-2-18.1c-0.6-6-1.4-12.1-2.1-18.1l-1.2-9c-0.4-3-0.8-6-1.3-9l-2.8-18
			c-0.9-6-2.1-12-3.2-18l-1.6-9l-1.9-9c-1.3-6-2.4-12-3.8-17.9C215,162,200.7,114.8,183,68.4c-8.8-23.2-18.3-46.2-28.8-68.8
			c-10.4-22.7-21.6-45.2-34.2-67L120.7-67.7z"/>
	</g>
</g>
<g>
	<defs>
		<rect id="SVGID_00000032610359696212510390000009363211077688332423_" width="1920" height="1080"/>
	</defs>
	<clipPath id="SVGID_00000080924527196743485040000014140069018819809210_">
		<use xlink:href="#SVGID_00000032610359696212510390000009363211077688332423_"  style="overflow:visible;"/>
	</clipPath>
	<g style="clip-path:url(#SVGID_00000080924527196743485040000014140069018819809210_);">
		<g id="XMLID_4_">
			<path class="st11" d="M1734.3,632.1c-0.8,8.6-1.5,17.6-2.1,26.9c-1.6,23.7-2.6,49.5-2.8,77.4c-0.1,11.8,0,23.8,0.3,36.3
				c0.5,22.6,1.6,46.2,3.5,70.8c1.3,17.3,3,35.1,5.2,53.2c2.1,17.7,4.6,35.7,7.6,54.1c3,18.7,6.6,37.8,10.7,57.1
				c4.7,22.5,10.2,45.4,16.6,68.6c3.5,12.8,7.2,25.7,11.2,38.6c5.1,16.6,10.7,33.3,16.7,50.1c6,16.7,12.4,33.5,19.4,50.3
				c2.8,6.9,5.7,13.8,8.7,20.7c7.3,16.9,15.2,33.8,23.5,50.8l0.4,3.7l117.9-4.9c4.9-41,8.6-79.6,11.2-115.9
				c3.7-50.4,5.3-96.6,5.2-138.9c-0.1-36-1.5-69.2-4-99.8c-5.1-62.3-14.7-114.2-27.6-158c-11.7-39.8-25.9-72.9-41.9-101
				c-19.4-34.4-41.3-61.4-63.7-84c-33.3-33.8-67.7-57.9-96.9-82.6C1753.5,505.4,1741.4,553,1734.3,632.1z"/>
			<path class="st10" d="M1660.9,586.8c-25.7,30.3-44.5,62.3-57.8,95.3c-16.1,40-24,81.4-25.7,123c-1.8,43.7,3.3,87.5,12.8,130.1
				c8.7,39,21.1,76.8,35.3,112.4c18.8,47.1,40.9,90.2,61.9,126.8c15.8,27.6,31.1,51.4,44,70.4c21.1,31.2,35.7,49.3,35.7,49.3
				l86.2-3.6l-0.4-3.7c-8.4-17-16.2-33.9-23.5-50.8c-3-6.9-5.9-13.8-8.7-20.7c-7-16.8-13.4-33.6-19.4-50.3
				c-6-16.8-11.6-33.5-16.7-50.1c-4-12.9-7.8-25.8-11.2-38.6c-6.3-23.2-11.8-46.1-16.6-68.6c-4.1-19.3-7.7-38.4-10.7-57.1
				c-3-18.4-5.5-36.4-7.6-54.1c-2.2-18.1-3.9-35.9-5.2-53.2c-1.9-24.5-3-48.2-3.5-70.8c-0.3-12.4-0.3-24.5-0.3-36.3
				c0.2-27.8,1.2-53.7,2.8-77.4c0.7-9.3,1.3-18.3,2.1-26.9c7-79.1,19.1-126.7,19.1-126.7C1715.8,530.6,1685.3,557.9,1660.9,586.8z"
				/>
		</g>
		<path class="st12" d="M1852.8,1290.7c-14.9-29.6-27.8-59.8-39.8-90.3c-12-30.5-22.8-61.3-32.5-92.4
			c-19.3-62.2-34.3-125.2-44.8-188.8c-1.4-7.9-2.4-15.9-3.7-23.8l-1.8-11.9l-1.5-12c-0.9-8-2.1-15.9-2.8-23.9l-2.3-24
			c-2.5-31.9-4-63.9-3.2-95.8l0.2-12l0.6-11.9c0.4-8,0.8-15.9,1.3-23.9l2.2-23.8c0.4-4,0.7-7.9,1.2-11.9l1.6-11.8
			c3.7-31.6,10.2-62.7,17.8-93.5l1,0.2c-9.9,62.6-15.8,125.6-15.5,189l0,23.8l0.7,23.8c0.1,7.9,0.6,15.8,1,23.8l0.6,11.9
			c0.2,4,0.4,7.9,0.8,11.9l1.8,23.8c0.6,7.9,1.6,15.9,2.3,23.8l1.2,11.9l1.5,11.9c1.1,7.9,1.9,15.8,3.2,23.8
			c9.4,63.3,23.3,126.3,41.6,188.4c9.1,31.1,19.2,62,30.5,92.6c11.3,30.6,23.5,61,37.8,90.8L1852.8,1290.7z"/>
	</g>
</g>
<g>
	<defs>
		<rect id="SVGID_00000081606343281013592950000006679361850238407553_" width="1920" height="1080"/>
	</defs>
	<clipPath id="SVGID_00000067927635524921807760000008855571265316898985_">
		<use xlink:href="#SVGID_00000081606343281013592950000006679361850238407553_"  style="overflow:visible;"/>
	</clipPath>
	<g style="clip-path:url(#SVGID_00000067927635524921807760000008855571265316898985_);">
		<g id="XMLID_5_">
			<path class="st17" d="M1611.6,683.2c-5.6,4.9-11.4,10.2-17.4,15.6c-15.1,13.9-31.3,29.6-48,46.9c-7.1,7.3-14.2,15-21.5,23
				c-13.2,14.5-26.6,30-40.1,46.5c-9.5,11.7-19.1,23.8-28.6,36.5c-9.3,12.3-18.5,25.2-27.6,38.5c-9.3,13.6-18.5,27.7-27.4,42.3
				c-10.5,17-20.8,34.7-30.7,53c-5.5,10.1-10.8,20.4-16,31c-6.7,13.5-13.2,27.3-19.4,41.5c-6.2,14.1-12.2,28.4-17.9,43.2
				c-2.4,6-4.6,12.1-6.9,18.2c-5.5,15-10.7,30.3-15.6,46l-2,2.6l76.9,67.4c27.6-22.8,53-44.9,76.4-66.1
				c32.5-29.5,61.1-57.5,86.3-84.1c21.4-22.7,40.4-44.3,57.2-65.1c34.1-42.2,59-80.5,77.2-115.8c16.5-32,27.3-61.3,34.1-88.5
				c8.4-33.2,10.8-63.2,10.3-90.8c-0.7-41.1-7.9-76.8-11.5-109.8C1699.3,615.1,1663.3,637.7,1611.6,683.2z"/>
			<path class="st18" d="M1592.5,610.8c-34.2,3.7-65.2,12.5-93.3,25.3c-34,15.5-63.8,36.8-89.7,61.9c-27.2,26.4-50.3,56.9-69.8,89.3
				c-17.9,29.7-32.7,60.8-45.1,91.7c-16.3,40.8-28.3,81.1-37,116.7c-6.5,26.8-11.2,50.9-14.5,70.5c-5.4,32.2-7.1,52.3-7.1,52.3
				l56.3,49.3l2-2.6c4.9-15.7,10.1-31,15.6-46c2.2-6.1,4.5-12.2,6.9-18.2c5.7-14.8,11.7-29.1,17.9-43.2c6.3-14.2,12.7-28,19.4-41.5
				c5.2-10.5,10.6-20.8,16-31c9.9-18.4,20.2-36.1,30.7-53c9-14.6,18.1-28.7,27.4-42.3c9.1-13.3,18.3-26.2,27.6-38.5
				c9.5-12.7,19-24.8,28.6-36.5c13.5-16.5,26.9-32,40.1-46.5c7.3-8,14.4-15.6,21.5-23c16.8-17.3,32.9-33,48-46.9
				c6-5.5,11.8-10.7,17.4-15.6c51.7-45.5,87.8-68.1,87.8-68.1C1660.6,608.4,1625.1,607.3,1592.5,610.8z"/>
		</g>
		<path class="st19" d="M1292.1,1167.7c8.3-27.5,18.3-54.2,29.1-80.5c10.7-26.3,22.4-52.2,34.8-77.5c25-50.6,53.3-99.2,84.8-145.4
			c3.9-5.8,8-11.4,12-17.2l6-8.6l6.2-8.4c4.2-5.6,8.2-11.2,12.5-16.7l12.9-16.4c17.5-21.5,35.7-42.5,55.3-62.1l7.3-7.4l7.5-7.1
			c5-4.7,10-9.5,15.1-14.2l15.6-13.6c2.6-2.2,5.2-4.6,7.8-6.8l8.1-6.5c21.2-17.6,43.9-33.3,67.1-48.1l0.5,0.7
			c-43.6,33.4-85.1,69.4-122.8,109.4l-14.2,14.9l-13.8,15.4c-4.7,5-9.1,10.3-13.6,15.5l-6.7,7.8c-2.3,2.6-4.5,5.2-6.6,7.9l-13.1,16
			c-4.3,5.3-8.5,10.9-12.8,16.3l-6.3,8.2l-6.2,8.4c-4.1,5.6-8.3,11.1-12.2,16.8c-31.9,45.4-60.9,93.2-86.6,143.2
			c-12.9,24.9-25,50.4-36.2,76.4c-11.2,26-21.7,52.4-30.6,79.6L1292.1,1167.7z"/>
	</g>
</g>
<g>
	<defs>
		<rect id="SVGID_00000174592954646639178430000014140045333428356992_" width="1920" height="1080"/>
	</defs>
	<clipPath id="SVGID_00000070117343841063873920000009425468188938426258_">
		<use xlink:href="#SVGID_00000174592954646639178430000014140045333428356992_"  style="overflow:visible;"/>
	</clipPath>
	
		<path style="clip-path:url(#SVGID_00000070117343841063873920000009425468188938426258_);fill:none;stroke:#262525;stroke-miterlimit:10;" d="
		M428.7,360.7"/>
</g>
<g>
	<defs>
		<rect id="SVGID_00000106835766033282583980000002218658515929778347_" width="1920" height="1080"/>
	</defs>
	<clipPath id="SVGID_00000010991507758691721710000000201994208349773973_">
		<use xlink:href="#SVGID_00000106835766033282583980000002218658515929778347_"  style="overflow:visible;"/>
	</clipPath>
	<path style="clip-path:url(#SVGID_00000010991507758691721710000000201994208349773973_);fill:#F70B65;" d="M204.3,716.2
		c-5.8,1.9-10.5,5.8-12.8,11.4c0.3-3.2,0.2-6.1-1.9-8.8c-1.6-2.1-4.6-5.3-7.6-4.2c-2.2,0.8-2,8.4,0,11.8c1,1.7,2.5,2.9,4.1,3.9
		c-0.3,0.5-0.6,1-0.7,1.7c-1.7,7.6-3.2,15.3-4.4,23c-4.9-7.8-12.5-16.4-19.6-21.3c-2.1-1.5-5.1-2.8-7.2-1.2
		c-2.1,1.6-1.6,4.8-0.7,7.2c4.5,12.4,13.8,22.9,25.6,28.8c-1.6,13.6-2.5,27.2-2.6,40.8c-2.1-6.1-6.1-15.2-8.5-18.9
		c-2.9-4.6-7.6-8.3-13-8.7c-5.4-0.3-11.1,3.7-11.4,9.1c-0.2,4.3,2.7,8,5.6,11.2c8,8.6,17.4,16,27.6,21.9c0.5,15.1,2,30.2,4.4,45.2
		c-7.3-6.5-15.1-12.6-23.3-18c-4.1-2.7-9.2-5.3-13.6-3.2c-3.9,1.9-5.3,7-4.2,11.2s4.2,7.5,7.4,10.4c10.4,9.4,23.4,15.7,37.2,18.2
		c2.9,13.5,6.6,26.9,11,40.1c-8.5-8.7-19.2-15.3-30.9-18.8c-5.1-1.5-12.3-1.4-13.8,3.7c-1.1,3.6,1.7,7.1,4.4,9.7
		c11.9,11,28.2,17.2,44.4,16.8c4.1,10.8,8.6,21.4,13.7,31.8c0.2,0.5,0.5,1,0.8,1.5c-8.3-5.2-17.8-8.6-27.6-9.5
		c-4-0.4-8.9,0.1-10.7,3.7c-1.3,2.7-0.2,6.1,1.9,8.2s5,3.3,7.8,4.3c11.9,4.3,24.3,7.3,36.9,9c4.1,7.3,8.5,14.5,13.2,21.5
		c-1.4-0.8-2.9-1.6-4.3-2.3c-4.6-2.4-9.7-4.4-14.9-3.9s-10.3,4.2-11,9.4c-0.6,4.6,2.4,9,6.3,11.5c3.9,2.5,8.6,3.3,13.1,4.2
		c9.5,1.8,18.9,3.5,28.4,5.3c7.5,9.5,15.6,18.6,24,27.2c-8.3-2.6-17-4.1-25.7-4.5c-3.2-0.1-6.6-0.1-9.5,1.2s-5.5,4.1-5.6,7.3
		c-0.1,3.1,2.1,6,4.9,7.5s5.9,1.9,9.1,2.2c13.4,1.3,26.9,1.1,40.2-0.7c14,12.9,29.1,24.7,45.1,35.2c-16.2-1.6-32.6-1.5-48.8,0.2
		c-3.2,0.4-7.3,1.6-7.6,4.8c-0.3,2.8,2.6,4.8,5.2,5.9c10.6,4.6,22.7,4.8,34,2.6c8.9-1.7,17.4-4.8,25.7-8.2c12.8,8,26.2,15.2,40,21.5
		c-14.2,4.3-30.2,3.4-42.5,11.6c-4.3,2.9-8.3,7.7-7.3,12.8c0.8,3.8,4.2,6.6,7.9,7.7s7.7,0.6,11.5-0.2c16.4-3.5,31.3-13.5,40.7-27.3
		c18.6,7.8,37.7,14,57.2,18.6c-5.8,2.1-11.7,4.2-17.9,4.1c-8-0.1-16.2-0.3-23.9,1.8s-15.1,7.1-18.2,14.5c-3,7.4-0.4,17.3,7,20.6
		c5.4,2.4,11.6,0.9,17.1-1.1c19.1-7,35.9-20.4,47-37.5c19.2,3.9,38.8,6.2,58.5,6.9c6.8,0.2,5.9-10.3-0.9-10.6
		c-2.4-0.1-4.8-0.2-7.2-0.3c-12.2-10-24.5-20.1-36.7-30.1c-3-2.4-6-4.9-9.7-5.9c-3.7-1-8.1-0.2-10.3,3c-3,4.5,0.1,10.4,3.5,14.6
		c4.2,5.2,9.1,9.8,14.4,13.9c-12.9-2.2-25.7-5.2-38.2-8.9c-1.3-17.5-6-34.8-14-50.4c-1.9-3.6-3.9-7.3-7-9.9
		c-3.1-2.6-7.5-4.2-11.4-2.9c-6.7,2.1-8.8,10.5-8.5,17.5c0.5,14,6.7,27.7,16.5,37.6c-15.8-5.9-31.2-13-46-21.1l1.3-0.1
		c5.8-16.8,3.3-36.3-6.4-51.2c-2.1-3.2-5.2-6.5-8.9-5.9c-3.9,0.6-5.9,4.9-6.9,8.7c-3.2,12.4-2.2,25.8,2.5,37.8
		c-13.1-8.2-25.7-17.4-37.6-27.3l1,0.3c6.1-18,12.2-36.4,12.9-55.4c0.2-4.8-0.1-9.9-2.6-14c-2.5-4.1-7.9-6.8-12.3-4.7
		c-4.3,2-5.7,7.4-6.4,12.1c-2.4,16.3-5.6,34.9-4,51.6c-9.4-8.5-18.2-17.6-26.5-27.1c5.3-11.8,8.6-29.5,13.1-41.1
		c2-5.2,4-10.8,3.1-16.3c-0.9-5.5-5.7-10.8-11.3-10.2c-3.6,0.4-6.6,3.1-8.3,6.3c-1.7,3.2-2.3,6.8-2.8,10.4c-1.9,13-3,26.1-3.5,39.3
		c-9.8-12.4-18.8-25.4-26.8-39c12.8-8.7,23.1-26,25.1-41.1c0.6-4.8,0.2-10.6-4-13.1c-3.5-2.1-8.3-0.7-11.2,2.2
		c-2.9,2.9-4.4,6.9-5.6,10.8c-3.3,10.7-7.5,21.7-9.1,32.8c-8.2-14.8-15.3-30.2-21.2-46.1c9.6-7.1,20.3-18.8,24.9-29.5
		c1.4-3.3,2.6-6.9,2.1-10.5s-2.8-7.2-6.3-8c-5.2-1.3-9.8,3.5-12.5,8.1c-5.5,9.3-8.8,19.6-11.8,30c-4.2-12.4-7.7-25-10.5-37.8
		c8.9-7.1,17.6-18.1,22.4-28.1c1.6-3.3,2.9-6.8,2.7-10.5c-0.2-3.6-2.3-7.4-5.8-8.5c-4.9-1.6-9.8,2.3-12.9,6.4
		c-5.2,7-8.6,15.3-9.7,23.9c-0.2-1.2-0.4-2.4-0.6-3.7c-2.6-16.2-4-32.5-4.2-48.8l0.1,0.3c5.9-4.5,11.9-9,17.8-13.4
		c1.9-1.5,3.9-3,4.6-5.3c1.1-3.6-2.1-7.5-5.8-8.2c-3.7-0.7-7.5,1.2-10.1,4c-1.9,2.1-4.7,7.1-6.6,11c0.2-12,1-24,2.4-35.9
		c13.4-4.9,28.4-15.6,35.7-27.2c1.6-2.5,3-5.9,1.3-8.3c-2.1-3-6.7-2-9.9-0.4c-7.6,3.7-17.6,10.2-24.2,16.9c1-5.7,2.1-11.3,3.4-17
		c0.1-0.6,0.1-1.1,0.1-1.6c8.2-1.5,22.5-6.7,21.2-13.8C216.1,712.9,207.9,715,204.3,716.2z"/>
</g>
<g>
	<defs>
		<rect id="SVGID_00000083052857250851315950000000875406118712778639_" width="1920" height="1080"/>
	</defs>
	<clipPath id="SVGID_00000010273333494278737300000000918366106993647500_">
		<use xlink:href="#SVGID_00000083052857250851315950000000875406118712778639_"  style="overflow:visible;"/>
	</clipPath>
	<path style="clip-path:url(#SVGID_00000010273333494278737300000000918366106993647500_);fill:#F70B65;" d="M1260.4,452.3
		c7.1-8.5,16.8-13.9,27.9-14c-5.6-1.6-10.4-3.8-13.7-9.2c-2.5-4.1-5.9-11.3-2.1-15.6c2.8-3.1,15.6,2.2,19.9,7.9
		c2.2,2.8,3.3,6.1,3.8,9.6c1.1-0.2,2.2-0.3,3.4-0.1c14,2.2,28,4.8,41.8,7.9c-10-13.5-19.4-32.1-22.9-47.5c-1.1-4.6-1.3-10.5,2.8-13
		c4.1-2.4,9.1,0.5,12.7,3.7c18,15.9,29.5,38.8,31.6,62.6c24,6.3,47.7,14.1,70.8,23.1c-8.9-7.7-21.5-20.6-26.3-27
		c-5.8-8-9-18.5-5.9-27.9s13.8-16.4,23.1-13.2c7.4,2.5,11.8,10,15.2,17c9.2,19.4,15.4,40.1,18.5,61.3c25.2,11,49.8,23.7,73.5,37.8
		c-6.2-16.8-11.2-34-14.9-51.5c-1.8-8.7-2.9-19.2,3.7-25.2c5.8-5.3,15.4-4.3,21.7,0.4c6.3,4.7,9.9,12.1,12.7,19.5
		c8.9,23.8,10.9,50.2,5.8,75.1c21,14,41.2,29.2,60.4,45.5c-9.1-20.2-13-42.8-11.1-64.9c0.8-9.7,5.8-21.8,15.5-20.9
		c6.8,0.6,10.9,7.6,13.4,14c10.6,27.6,10.1,59.2-1.3,86.4c15.6,14.1,30.4,29,44.6,44.5c0.7,0.8,1.3,1.5,2,2.3
		c-3.3-17.6-2.6-35.9,2.4-53.1c2-7,6.2-15,13.5-15.7c5.4-0.5,10.4,3.7,12.6,8.7c2.2,5,2.2,10.6,2,16c-0.8,23.1-4,46.1-9.6,68.5
		c9.6,11.9,18.8,24.1,27.5,36.7c-0.4-2.9-0.8-5.9-1.1-8.8c-1-9.4-0.9-19.4,3.5-27.8s14.1-14.7,23.2-12.4c8.1,2,13.6,10.1,15.2,18.3
		c1.6,8.2-0.1,16.7-1.7,24.9c-3.4,17.2-6.8,34.4-10.2,51.6c11,19.1,20.9,38.8,29.9,58.9c1.1-15.8,4.4-31.5,9.7-46.4
		c2-5.5,4.3-11.1,8.4-15.3c4.2-4.2,10.5-6.6,16.1-4.5c5.3,2,8.6,7.7,9.3,13.3c0.7,5.7-0.7,11.3-2.3,16.8
		c-6.7,23.5-16.2,46.2-28.2,67.5c12.4,32.4,22.2,65.8,29.4,99.9c8.2-28.5,19.3-56.2,33.2-82.4c2.8-5.3,7.6-11.3,13.3-9.6
		c4.9,1.4,6.4,7.6,6.6,12.7c0.6,21-7.2,41.5-18.5,59.2c-8.8,13.8-19.7,26.1-31.1,38.1c4.9,27,8.1,54.5,9.5,82.1
		c16.7-21.1,26.1-48.8,48.1-64.2c7.8-5.4,18.5-8.8,26.5-3.7c5.9,3.8,8.4,11.5,7.7,18.5c-0.7,7-4.2,13.4-8,19.3
		c-16.9,25.4-43.8,43.9-73.5,50.6c0.8,36.7-1.6,73.2-6.9,109.4c7.5-8.5,14.9-17,18.9-27.6c5.2-13.6,10.3-27.6,19.1-39.2
		c8.8-11.6,22.1-20.8,36.7-21c14.6-0.2,29.6,11,30.2,25.6c0.5,10.7-6.2,20.3-13.4,28.3c-24.7,27.7-58.6,47-95,54.3
		c-6.3,35.2-15.5,69.8-27.5,103.7c-4.2,11.7-21.5,3-17.3-8.6c1.5-4.1,2.9-8.3,4.2-12.4c-8.8-27.4-17.5-54.8-26.3-82.2
		c-2.1-6.6-4.2-13.5-3.5-20.3c0.8-6.9,5.2-13.9,12-15.3c9.6-2,17.6,7.2,22.4,15.7c5.9,10.6,10.5,22,13.8,33.7
		c4.8-23.4,8.3-47,10.5-70.7c-28.8-13.9-54.8-33.5-75.9-57.5c-4.9-5.6-9.7-11.6-12.1-18.6c-2.4-7.1-2-15.4,2.7-21.2
		c8-9.9,23.7-7.9,35.3-2.7c23.3,10.3,42.4,29.8,52.6,53.2c0.6-30.7-1.1-61.5-4.9-92l-1.1,2.2c-32.4-1.5-63.7-18.7-82.3-45.2
		c-4-5.6-7.4-13.1-4-19.1c3.6-6.2,12.2-6.7,19.3-5.8c23.2,3,45.2,13.7,62.2,29.7c-5.2-27.8-12.2-55.2-20.9-82l0,1.8
		c-34.6-1.8-69.7-3.7-102.3-15.3c-8.2-2.9-16.6-6.7-21.9-13.7c-5.2-7-6.1-17.9,0.2-23.9c6.3-5.9,16.3-4.7,24.8-2.7
		c29.2,6.8,62.8,13.9,90.1,27.8c-8.2-21.6-17.6-42.7-28.1-63.1c-23.5,1-55.6-5.2-78.3-5.4c-10.2-0.1-20.9-0.5-29.7-5.8
		c-8.8-5.2-14.5-17-9.7-26c3.1-5.8,9.7-9.1,16.2-9.8s13.1,0.7,19.4,2.2c23.3,5.6,46.3,12.4,68.8,20.4c-14.3-25-30.4-48.9-48.1-71.6
		c-23.3,15.8-59.4,21.6-86.4,14.9c-8.6-2.1-18.1-6.9-19.5-15.6c-1.2-7.4,4.4-14.5,11.2-17.5s14.6-2.8,22-2.2
		c20.3,1.5,41.8,1.8,61.7,6.6c-19.6-23.8-40.9-46.1-63.8-66.8c-18.4,11.4-45.4,21.8-66.6,22.3c-6.6,0.2-13.4-0.3-19.2-3.4
		c-5.8-3.1-10.3-9.5-9.4-16c1.3-9.6,12.6-14.2,22.2-15.7c19.4-3.1,39.1-1.7,58.7,0.3c-18.1-15.4-37.1-29.9-56.9-43.2
		c-17.9,10.2-42.4,17.7-62.5,19.1c-6.6,0.5-13.5,0.4-19.6-2.4c-6-2.8-11-8.8-10.6-15.5c0.6-9.3,10.5-15,19.5-17.5
		c15.3-4.2,31.7-4.3,47-0.4c-1.9-1.2-3.8-2.3-5.8-3.5c-25.7-15.2-52.3-28.5-79.7-39.9l0.5,0.3c-11.6,7-23.1,14-34.7,21.1
		c-3.7,2.3-7.8,4.6-12.2,4.2c-6.8-0.6-11.4-8.5-10-15.2s7.1-11.9,13.5-14.3c4.8-1.8,15.2-3.2,23.1-3.9c-20.4-7.7-41.3-14.4-62.5-20
		c-17.2,19.3-45.5,37.6-69.9,42.1c-5.3,1-11.9,1.1-14.9-3.4c-3.7-5.5,1.1-12.6,5.9-17.1c11.3-10.5,29-22.9,44.9-29.6
		c-10.3-2.1-20.6-4-31.1-5.6c-1.1-0.2-2-0.5-2.8-0.9c-8,12.9-26.5,33.5-37.5,26.6C1246.9,470.1,1256,457.5,1260.4,452.3z"/>
</g>
<g>
	<g id="XMLID_2_">
		<path class="st17" d="M681.7,271.7c-5.3-6.1-10.8-12.4-16.7-18.9c-14.8-16.4-31.4-34-49.7-52.3c-7.8-7.7-15.8-15.6-24.2-23.6
			c-15.3-14.5-31.5-29.2-48.8-44.1c-12.2-10.5-24.9-21.1-38.1-31.6C491.2,91,477.9,80.7,464,70.6c-14.1-10.4-28.7-20.6-43.8-30.7
			c-17.5-11.8-35.8-23.4-54.7-34.6C355.1-0.9,344.5-7,333.7-13c-13.8-7.7-28-15.1-42.5-22.4c-14.4-7.2-29.1-14.2-44.2-20.9
			c-6.1-2.8-12.3-5.5-18.6-8.1c-15.3-6.5-30.8-12.7-46.7-18.6l-2.7-2.2L116.7-8.6c24.5,29.8,48,57.4,70.6,82.8
			c31.4,35.3,61.1,66.5,89.2,94.1c23.9,23.5,46.7,44.3,68.4,62.8c44.1,37.6,83.9,65.5,120.1,86.2c32.9,18.8,62.7,31.5,90.2,40
			c33.6,10.4,63.7,14.5,91.1,15.4c40.9,1.4,76-4.2,108.7-6.2C755.1,366.5,730.3,327.8,681.7,271.7z"/>
		<path class="st18" d="M752.6,255.7c-5.8-35.8-16.5-68.5-31-98.3C704,121.2,680.9,89.3,654.3,61c-28-29.7-59.8-55.2-93.3-77.2
			c-30.6-20.1-62.7-37.2-94.1-51.6c-41.7-19.1-82.6-33.6-118.5-44.5c-27.1-8.2-51.4-14.3-71.1-18.7c-32.4-7.3-52.6-10-52.6-10
			l-45.6,55.9l2.7,2.2c15.9,5.9,31.5,12.1,46.7,18.6c6.2,2.7,12.5,5.3,18.6,8.1c15,6.7,29.8,13.6,44.2,20.9
			c14.5,7.2,28.7,14.7,42.5,22.4c10.8,6,21.4,12,31.8,18.3c18.9,11.2,37.2,22.8,54.7,34.6c15.1,10.1,29.7,20.3,43.8,30.7
			c13.8,10.1,27.2,20.4,40.1,30.7c13.2,10.5,25.9,21.1,38.1,31.6c17.3,14.9,33.6,29.6,48.8,44.1c8.4,8,16.5,15.8,24.2,23.6
			c18.3,18.3,34.9,35.9,49.7,52.3c5.8,6.5,11.4,12.8,16.7,18.9c48.5,56.1,73.3,94.7,73.3,94.7C759.3,326.6,758.2,289.7,752.6,255.7z
			"/>
	</g>
	<g>
		<path class="st19" d="M179.2-85.5c27.9,10.1,55.1,21.9,82,34.4c26.9,12.5,53.3,26,79.3,40.2c52,28.6,102.1,60.6,150.1,95.6
			c6,4.3,11.9,8.9,17.8,13.3l8.9,6.7l8.7,6.9c5.8,4.6,11.7,9.2,17.4,13.9l17.2,14.2c22.6,19.3,44.6,39.3,65.3,60.7l7.8,8l7.6,8.2
			c5,5.5,10.1,10.9,15.1,16.4L671,250c2.4,2.8,4.9,5.6,7.2,8.5l6.9,8.7c18.9,23,35.9,47.4,52.1,72.2l-0.7,0.5
			c-36-47.1-74.4-92-116.7-133.3L604,191l-16.2-15.1c-5.3-5.1-10.8-10-16.3-15l-8.2-7.4c-2.7-2.5-5.5-4.9-8.3-7.3l-16.8-14.5
			c-5.6-4.8-11.4-9.4-17.1-14.1l-8.6-7l-8.7-6.8c-5.8-4.5-11.6-9.2-17.5-13.6c-47.2-35.6-96.7-68.1-148.1-97.4
			c-25.7-14.7-51.8-28.6-78.3-41.7c-26.6-13-53.5-25.3-81.2-35.9L179.2-85.5z"/>
	</g>
</g>
</svg>
